<?xml version="1.0" encoding="UTF-8"?>
<svg width="64px" height="64px" viewBox="0 0 64 64" version="1.1" xmlns="http://www.w3.org/2000/svg" xmlns:xlink="http://www.w3.org/1999/xlink">
    <!-- Generator: Sketch 54.1 (76490) - https://sketchapp.com -->
    <title>Fill-1</title>
    <desc>Created with Sketch.</desc>
    <g id="Page-1" stroke="none" stroke-width="1" fill="none" fill-rule="evenodd">
        <g id="magenta" fill="#FFB819" fill-rule="nonzero">
            <path d="M0,63.7832 L63.783,63.7832 L63.783,0.0002 L0,0.0002 L0,63.7832 Z M15.378,7.4902 L56.293,7.4902 L44.46,19.3222 L11.435,19.3222 L11.435,27.2112 L7.492,27.2112 L7.492,15.3792 L42.827,15.3792 L46.773,11.4342 L15.378,11.4342 L15.378,7.4902 Z M15.379,23.2672 L40.515,23.2672 L28.684,35.0982 L11.435,35.0982 L11.435,46.7692 L15.379,42.8262 L15.379,39.0422 L19.323,39.0422 L19.323,44.4602 L7.492,56.2922 L7.492,31.1542 L27.052,31.1542 L30.995,27.2112 L15.379,27.2112 L15.379,23.2672 Z" id="Fill-1"></path>
        </g>
    </g>
</svg>