<?xml version="1.0" encoding="UTF-8"?>
<svg width="358px" height="261px" viewBox="0 0 358 261" version="1.1" xmlns="http://www.w3.org/2000/svg" xmlns:xlink="http://www.w3.org/1999/xlink">
    <!-- Generator: Sketch 54.1 (76490) - https://sketchapp.com -->
    <title>splash-2</title>
    <desc>Created with Sketch.</desc>
    <g id="Page-1" stroke="none" stroke-width="1" fill="none" fill-rule="evenodd">
        <g id="splash-2">
            <path d="M322.42,64.4033 C322.304,64.3361 322.187,64.2697 322.07,64.2024 C321.787,64.5821 321.57,65.048 321.207,65.3192 C320.811,65.6148 320.152,65.6102 319.836,65.9486 C319.177,66.6559 318.331,66.9744 317.517,67.3823 C317.246,68.6534 316.061,69.0116 315.203,69.696 C314.53,70.233 313.834,70.7448 313.192,71.3169 C313.003,71.4857 312.965,71.8249 312.859,72.0861 C313.559,71.8012 313.943,71.1619 314.737,71.3803 C315.326,71.543 315.265,71.019 315.488,70.7295 C315.673,70.4889 316.498,70.5531 316.521,70.4041 C316.646,69.5799 317.314,69.4509 317.853,69.1094 C318.464,68.7237 319.115,68.328 319.564,67.7841 C320.019,67.2342 320.611,67.2754 321.143,67.1158 C321.011,66.782 320.884,66.4596 320.677,65.9371 L322.42,65.9371 L322.42,64.4033 Z M121.711,23.6771 C120.301,24.4386 119.811,25.825 119.164,27.0976 C118.553,28.2976 118.267,29.655 117.715,30.8565 C117.094,32.207 116.78,33.6155 116.723,34.9928 C116.664,36.4326 115.695,37.8251 116.43,39.3261 C116.638,38.9686 116.877,38.6508 117.013,38.2941 C117.105,38.0527 117.015,37.748 117.074,37.4867 C117.286,36.5388 117.527,35.5977 117.757,34.6544 C118.005,33.6369 118.491,32.6645 118.34,31.5715 C119.419,29.3174 119.825,26.7837 121.227,24.6632 C121.428,24.36 121.551,24.0063 121.711,23.6771 Z M334.998,79.2465 C335.271,79.274 335.457,79.3511 335.528,79.2908 C336.711,78.2909 337.938,77.333 339.042,76.2491 C341.328,74.0027 343.161,71.3674 344.862,68.684 C345.628,67.4756 346.53,66.2557 346.884,64.7494 C347.044,64.0703 346.476,64.2231 346.405,63.9045 C344.978,66.6727 343.706,69.5395 341.686,71.9212 C339.57,74.4167 337.278,76.764 334.998,79.2465 Z M318.755,27.4039 C319.141,27.6552 319.461,27.8714 319.789,28.0746 C320.117,28.2785 320.454,28.4687 320.787,28.665 C320.244,29.6596 320.246,29.6504 320.925,30.1423 C321.19,30.3348 321.574,30.5739 321.609,30.8328 C321.749,31.848 322.368,31.2537 322.656,31.3011 C322.593,30.5678 322.533,29.8757 322.473,29.1845 C323.363,28.6085 322.503,28.0249 322.445,27.4597 C322.408,27.1075 322.132,26.7508 321.878,26.4751 C321.828,26.4224 321.381,26.7386 321.062,26.9151 C320.828,26.4124 320.643,26.0145 320.344,25.3705 C320.947,25.6173 321.261,25.7456 321.569,25.8716 C321.938,24.9649 320.923,25.3125 320.843,24.9374 C320.748,24.4936 320.821,24.0139 320.821,23.4082 L318.01,23.4082 C317.877,23.0515 317.805,22.8582 317.626,22.3801 C317.517,23.9887 317.517,23.9887 318.219,24.5998 C318.301,24.3584 318.384,24.1171 318.47,23.8627 C318.843,24.2125 319.175,24.5234 319.47,24.7999 C319.842,24.5929 320.069,24.4669 320.467,24.2454 C320.285,25.5271 319.363,25.7662 318.755,26.2398 L318.755,27.4039 Z M291.48,197.489 C291.194,198.054 290.808,198.597 290.892,198.684 C291.481,199.291 291.163,199.999 291.212,200.65 C291.266,201.34 291.383,202.087 291.181,202.718 C290.972,203.368 291.948,203.886 291.248,204.479 C291.905,205.003 291.592,205.733 291.632,206.38 C291.675,207.071 291.642,207.767 291.642,208.462 C291.642,211.099 291.637,213.738 291.648,216.375 C291.649,216.638 291.74,216.9 291.79,217.161 C291.944,216.06 292.342,215.034 292.419,214.013 C292.605,211.577 292.391,209.123 292.856,206.686 C293.052,205.656 292.621,204.558 292.557,203.527 C292.432,201.516 291.963,199.614 291.48,197.489 Z M291.896,246.006 C292.423,245.229 292.933,244.611 293.295,243.917 C294.486,241.639 296.459,239.738 296.673,236.981 C296.682,236.875 296.87,236.793 296.955,236.684 C297.579,235.879 297.953,234.972 297.881,233.948 C297.804,232.85 298.148,231.868 298.582,230.901 C298.785,230.448 298.885,230.04 298.274,229.568 C298,229.926 297.64,230.235 297.497,230.623 C297.273,231.228 297.245,231.904 297.048,232.522 C296.501,234.235 296.177,236.03 295.221,237.599 C295.091,237.813 294.945,238.108 294.993,238.324 C295.233,239.427 294.631,240.401 294.081,241.058 C292.943,242.416 292.676,244.263 291.222,245.332 L291.896,246.006 Z M137.645,21.1732 C136.685,20.6744 135.896,20.2642 135.098,19.8494 C134.962,19.9716 134.759,20.1534 134.564,20.3284 C134.709,20.4941 134.837,20.6377 134.91,20.7202 C133.968,21.4589 133.044,22.1837 132.131,22.901 C132.206,22.9934 132.464,23.2249 132.43,23.2799 C132.124,23.7833 131.74,24.2393 131.429,24.7404 C130.734,25.8617 129.937,26.9693 130.562,28.4443 C131.467,27.8225 131.958,26.5782 133.261,26.6973 C133.126,26.3498 132.831,25.9411 132.93,25.7876 C133.398,25.0642 133.854,24.2225 134.544,23.7863 C135.247,23.341 135.85,22.7016 136.019,22.1188 C136.281,21.2205 136.899,21.4986 137.645,21.1732 Z M195.433,166.551 L195.727,166.256 C195.617,166.158 195.497,165.968 195.397,165.978 C194.592,166.054 193.615,166.044 193.336,165.754 C192.237,164.61 190.872,165.061 189.685,165.287 C188.586,165.497 187.583,166.21 186.535,166.697 C186.204,166.852 185.875,167.059 185.527,167.108 C185.379,167.128 185.196,166.663 184.946,167.044 C184.781,167.296 184.648,167.567 184.286,168.211 C185.544,167.71 186.372,169.157 187.363,168.065 C187.38,168.046 187.855,168.298 187.871,168.449 C187.93,169.006 188.397,168.984 188.613,168.856 C189.673,168.234 190.851,168.587 191.972,168.41 C192.04,167.988 192.101,167.606 192.118,167.5 C192.403,167.784 192.753,168.133 193.042,168.421 C192.961,168.448 192.719,168.533 192.805,168.503 C193.078,168.777 193.43,169.128 193.731,169.43 C193.912,168.777 193.271,167.6 194.586,167.186 C195.23,167.717 195.908,167.791 196.737,167.411 C196.261,167.096 195.847,166.823 195.433,166.551 Z M201.049,173.454 C200.514,174.286 199.608,173.206 199.059,173.879 C198.409,173.192 197.516,173.614 196.744,173.38 C196.364,173.464 197.132,172.338 196.155,172.843 C195.541,173.16 194.697,173.035 193.866,173.118 C193.772,172.64 193.688,172.216 193.554,171.542 C193.381,172.039 193.296,172.281 193.195,172.568 C192.676,172.225 192.162,171.885 191.574,171.496 C191.686,171.102 191.806,170.68 191.933,170.235 C191.128,169.728 190.202,169.492 188.938,169.945 C189.794,170.352 190.471,170.673 191.202,171.019 C190.987,171.46 190.802,171.838 190.617,172.217 C190.241,172.036 190.51,170.896 189.515,171.612 C189.685,171.992 189.866,172.392 190.043,172.787 C189.885,172.871 189.756,172.989 189.702,172.961 C189.016,172.6 188.341,172.218 187.663,171.84 C187.031,172.994 185.87,173.416 184.487,173.834 C184.621,173.446 184.718,173.166 184.865,172.743 C184.47,172.497 184.306,171.717 183.456,171.807 C183.577,172.456 183.691,173.065 183.8,173.652 C183.12,173.956 183.024,174.139 183.241,174.577 C182.275,175.337 182.109,173.875 181.338,173.788 C181.262,174.286 181.203,174.667 181.142,175.065 C180.724,175.002 180.504,174.461 179.928,174.913 C179.126,175.54 178.053,175.819 177.256,176.45 C176.452,177.087 175.816,176.774 175.027,176.423 C174.999,176.793 174.975,177.122 174.938,177.615 C173.848,177.412 173.003,178.124 172.027,178.433 C169.695,179.173 167.455,180.144 165.17,180.999 C163.128,181.763 161.133,182.649 159.107,183.458 C157.438,184.125 155.769,184.793 154.077,185.396 C151.778,186.215 149.566,187.255 147.297,188.146 C145.524,188.842 143.747,189.631 141.981,190.396 C141.398,190.649 140.875,191.162 140.13,190.976 C139.972,190.938 139.724,191.038 139.592,191.157 C137.995,192.594 135.722,192.596 134.014,193.796 C133.916,193.865 133.753,193.895 133.635,193.871 C131.901,193.528 130.633,194.67 129.218,195.289 C126.968,196.275 124.658,197.06 122.272,197.631 C121.769,197.751 121.231,197.826 120.789,198.067 C120.37,198.297 119.924,198.128 119.558,198.291 C119.087,198.501 118.608,198.793 118.266,199.17 C117.785,199.702 117.472,198.613 116.909,199.165 C116.497,199.567 115.68,199.518 115.118,199.812 C114.198,200.294 113.035,200.101 112.233,200.936 C112.067,201.11 111.511,201.072 111.229,200.937 C110.719,200.692 110.53,200.61 110.21,201.259 C110.034,201.614 109.177,201.692 108.609,201.783 C106.804,202.07 105.18,203.108 103.295,203.045 C101.832,204.06 100.06,203.956 98.4349,204.387 C98.0606,204.487 97.697,204.632 97.3181,204.704 C96.6108,204.841 95.8974,204.533 95.161,205.071 C94.6431,205.451 93.7005,204.833 93.0528,205.517 C92.9275,205.65 92.3714,205.526 92.1209,205.359 C91.4632,204.92 91.784,205.625 91.6366,205.702 C91.4021,205.826 91.037,205.689 90.7895,205.801 C89.6651,206.309 88.4857,206.52 87.2804,206.364 C85.1485,206.089 83.112,206.897 80.9916,206.845 C80.3507,206.83 79.6953,207.28 79.0468,206.794 C77.8422,207.414 76.6361,206.533 75.4346,206.799 C74.9312,206.91 74.3323,207.321 73.9604,207.162 C72.9757,206.745 71.9843,206.863 70.9882,206.782 C69.9998,206.7 69.0198,206.516 68.0352,206.378 C67.9038,206.359 67.6998,206.389 67.6525,206.317 C67.2278,205.667 66.5449,206.053 66.0789,205.889 C65.0179,205.513 63.8531,205.75 62.8456,205.147 C62.0916,204.695 61.392,204.331 61.0215,203.866 C60.8832,204.16 60.7518,204.442 60.5639,204.84 C59.0401,203.675 56.7852,203.858 55.5149,201.852 L53.9696,201.852 C53.7756,201.507 53.6221,200.998 53.4708,200.999 C52.4091,201.005 51.5276,200.947 51.6047,199.496 C51.6162,199.272 51.0395,199.017 50.3428,198.467 C50.6178,199.27 50.7355,199.616 50.944,200.225 C50.1351,199.687 49.553,199.327 49.0008,198.924 C48.4798,198.545 47.8916,198.196 47.5128,197.696 C47.0705,197.115 46.328,196.939 45.9438,196.31 C45.6001,195.748 45.2273,195.18 44.7599,194.725 C44.2687,194.249 44.0189,193.601 43.3643,193.201 C42.9297,192.935 42.8449,192.096 42.5974,191.502 C42.7318,191.358 42.9182,191.156 43.0985,190.961 C43.2589,191.104 43.4033,191.232 43.7378,191.529 C43.6798,191.096 43.7233,190.815 43.6049,190.643 C43.1359,189.961 42.3988,189.634 41.677,189.287 C41.3852,189.146 41.0055,188.964 40.9024,188.707 C40.758,188.348 40.9383,187.858 40.7886,187.504 C40.6679,187.218 40.024,187.046 40.0278,186.83 C40.0469,185.743 39.2876,184.778 39.571,183.669 C38.7888,181.901 39.2838,180.035 39.1562,178.217 C38.9195,174.84 39.872,171.656 40.9834,168.557 C42.2353,165.064 44.0785,161.863 46.3723,158.908 C47.9703,156.851 49.4889,154.745 51.2335,152.794 C53.6205,150.125 55.7181,147.211 57.7308,144.246 C58.3472,143.339 58.652,142.266 59.3204,141.352 C59.949,140.492 60.3271,139.413 60.6609,138.382 C60.9619,137.453 61.0803,136.462 61.2277,135.491 C61.3454,134.71 60.9993,133.866 61.6318,133.147 C61.7563,133.006 61.6455,132.618 61.5799,132.361 C61.5004,132.052 61.2651,131.766 61.2491,131.463 C61.0161,126.994 58.5879,123.297 55.1734,120.846 C53.0897,119.349 50.8607,118.146 48.7327,116.761 C45.733,114.809 42.5455,113.182 39.5626,111.204 C37.242,109.665 34.784,108.335 32.3901,106.909 C29.7044,105.308 26.8476,103.979 24.4643,101.901 C23.1528,101.687 22.4554,100.477 21.3081,99.9659 C20.0256,99.3946 19.167,98.2144 17.9915,97.4376 C16.6463,96.5485 15.5265,95.3187 14.3036,94.2424 C13.6009,93.6229 13.0654,92.8338 12.135,92.4397 C11.6607,92.2396 11.1611,91.7553 10.9786,91.2809 C10.6104,90.3223 9.78924,89.8174 9.17128,89.1139 C6.21213,85.7415 3.87551,82.0315 2.44405,77.7295 C1.85206,75.9512 1.64735,74.063 0.822393,72.3634 C1.11113,70.8525 0.337348,69.4486 0.393873,67.9522 C0.44887,66.4963 0.144094,64.9754 0.467203,63.5929 C0.951484,61.5205 0.891904,59.287 2.07205,57.3942 C2.45856,54.5359 5.24738,49.5006 6.51537,47.5688 C8.00106,45.307 10.0146,43.5044 12.0197,41.7643 C13.0341,40.8836 14.2669,40.0227 15.7221,39.6989 C16.6608,39.4896 17.511,39.0099 18.4811,38.7799 C19.371,38.5691 20.0607,38.385 20.9308,38.7349 C21.2516,38.864 21.7382,38.5088 22.1552,38.4828 C22.916,38.4354 23.6883,38.4118 24.4445,38.4882 C25.0105,38.5454 25.5391,39.0962 26.1387,38.5783 C26.7826,39.2253 27.6068,38.6761 28.2973,38.9022 C28.9031,39.1008 29.4416,39.5018 30.0458,39.7057 C31.0243,40.0342 32.0356,40.2649 33.0271,40.5582 C33.3326,40.6483 33.6474,40.7644 33.9078,40.9424 C35.4814,42.0171 37.3627,42.3319 39.0906,43.017 C40.9375,43.7503 42.88,44.2674 44.6598,45.1589 C45.9308,45.7959 47.2989,46.1901 48.599,46.7148 C49.9663,47.2671 51.2801,47.9576 52.6734,48.4488 C55.5309,49.4563 58.1731,50.9336 60.9008,52.223 C64.3855,53.8706 67.8633,55.5342 71.3289,57.2224 C77.3977,60.1769 83.4458,63.1728 89.5215,66.1113 C91.021,66.837 92.5571,67.5374 94.1497,67.9957 C94.9212,68.218 95.5315,68.7038 96.2877,68.8856 C97.4243,69.1583 98.5518,69.4707 99.6945,69.7075 C100.6,69.8954 101.593,69.8251 102.421,70.1719 C103.88,70.7822 105.455,70.8036 106.949,71.2917 C108.526,71.8066 110.216,71.1267 111.553,70.0077 C112.136,69.5188 112.621,68.9154 113.183,68.3998 C115.389,66.3786 115.913,63.9633 114.994,61.1516 C114.59,59.9126 114.102,58.679 114.15,57.3339 C113.314,56.5662 114.167,55.3143 113.348,54.5412 C113.525,53.0097 113.082,51.4958 113.636,49.9016 C114.001,48.8475 114.332,47.62 114.176,46.3558 C113.778,43.1392 114.468,39.9433 114.665,36.7458 C114.802,34.5261 115.369,32.2643 116,30.0537 C116.43,28.5482 117.113,27.1587 117.637,25.7173 C118.222,24.1026 119.372,22.6764 120.366,21.2297 C122.458,18.1865 125.245,15.8728 128.323,13.8876 C130.552,12.45 132.881,11.1912 135.405,10.3739 C136.454,10.0347 137.611,9.92471 138.655,9.63674 C139.813,9.31745 141.007,9.62452 142.024,9.2403 C143.111,8.82935 144.159,8.82706 145.205,8.91796 C147.183,9.08983 149.152,9.39995 151.111,9.73299 C153.027,10.0592 154.8,10.8543 156.609,11.5387 C158.988,12.4408 161.22,13.5904 163.245,15.1357 C163.558,15.3748 163.965,15.5344 164.196,15.8331 C165.451,17.4563 166.761,19.0489 167.87,20.7699 C169.748,23.687 171.874,25.7647 174.484,27.7897 C174.907,28.1174 175.188,28.6268 175.537,29.0546 C176.222,28.8125 176.706,28.5146 177.196,28.5023 C177.765,28.4893 178.201,28.2342 178.699,28.0868 C179.21,27.9356 179.841,27.9256 180.344,28.0876 C180.885,28.2617 181.178,27.4543 181.756,27.892 C181.915,28.0119 182.4,27.7026 182.735,27.5895 C183.101,27.4665 183.504,27.4039 183.823,27.2053 C184.312,26.9005 184.496,27.8072 185.035,27.4184 C185.321,27.2122 185.809,27.3061 186.193,27.2122 C186.63,27.106 187.044,26.899 187.482,26.8135 C188.095,26.6935 188.635,27.0701 189.193,27.1549 C189.581,27.2137 190.032,26.5377 190.512,26.4178 C191.141,26.2612 191.778,26.3093 192.442,26.0366 C193.034,25.7937 194.074,25.5791 194.374,26.7722 C194.394,26.8501 194.988,26.7829 195.376,26.7829 C195.193,26.4025 195.064,26.1336 194.928,25.8525 C195.604,25.5745 196.113,24.693 196.935,25.4729 C197.221,25.0169 197.478,25.5126 197.665,25.4897 C198.202,25.4232 198.4,24.1178 199.266,25.049 C199.838,24.8122 200.396,24.515 200.99,24.3707 C201.233,24.3118 201.599,24.7373 201.831,24.6716 C202.169,24.5761 202.431,23.9903 202.835,24.4745 C203.211,24.9245 203.386,24.2408 203.568,24.3875 C203.742,24.5295 203.777,24.842 203.874,25.0803 C205.281,24.6319 205.281,24.6319 205.621,23.3884 C205.981,23.5595 206.36,23.6763 206.66,23.9009 C206.923,24.0972 207.098,24.4142 207.287,24.6472 C207.516,24.2691 207.75,23.8795 207.976,23.5052 C210.902,24.2767 211.12,24.2148 212.163,22.2938 L213.575,22.2938 C213.668,22.4893 213.798,22.7666 213.948,23.0866 C214.21,22.0402 214.21,22.0402 215.263,21.4634 C215.708,21.3443 214.915,22.581 215.864,21.9897 C216.378,21.6697 216.967,21.6758 217.563,22.0486 C217.831,22.2166 218.334,22.1715 218.664,22.047 C219.32,21.7988 220.26,21.8064 220.135,20.6408 C220.113,20.4406 220.459,20.0771 221.014,20.4605 C221.552,20.8317 222.383,20.7806 223.223,20.941 C223.1,20.5774 222.982,20.2268 222.829,19.773 C223.996,20.1947 224.959,20.4743 225.857,19.5088 C226.144,19.1994 226.557,19.8838 227.177,19.5072 C228.028,18.9901 229.172,18.958 230.332,18.6846 C230.363,18.4783 230.421,18.0964 230.476,17.7412 C230.577,17.6931 230.638,17.635 230.693,17.6419 C231.194,17.703 233.144,17.4043 233.718,17.2271 C234.707,16.9239 235.705,16.6504 236.705,16.3892 C241.383,15.1678 245.867,13.3315 250.496,11.9818 C253.785,11.0231 257.075,10.0362 260.415,9.22044 C263.225,8.53451 266.054,7.82336 268.831,6.94875 C270.382,6.45989 272.034,6.29566 273.636,5.96568 C274.141,5.86103 274.627,5.6609 275.133,5.5616 C275.972,5.39584 276.822,5.27668 277.666,5.13766 C278.512,4.99864 279.393,4.96885 280.195,4.69845 C282,4.08966 283.928,4.16681 285.746,3.53128 C286.767,3.17456 287.981,3.48622 289.107,3.0913 C290.028,2.76972 291.208,3.0302 292.008,2.57112 C292.937,2.03948 293.922,2.33509 294.869,1.89588 C295.812,1.45896 297.086,1.8256 298.213,1.44062 C298.658,1.28862 299.344,1.65221 299.849,1.91497 C300.57,2.29002 301.194,2.43439 301.853,1.81644 C302.151,1.53687 305.804,0.0733297 305.944,0.209295 C306.719,0.964744 307.391,0.281861 308.317,0 C308.207,0.451436 308.146,0.725658 308.071,0.996062 C308.01,1.2214 307.934,1.44291 307.823,1.79581 C308.781,1.48111 308.811,0.818848 308.709,0.0824959 C309.1,0.307832 309.42,0.588929 309.51,0.527821 C309.989,0.205476 310.364,0.345261 310.865,0.506433 C311.213,0.617955 311.7,0.247488 312.137,0.148951 C312.402,0.0893706 312.697,0.0993006 312.967,0.146659 C313.363,0.217697 313.671,0.953286 314.155,0.323109 C314.615,-0.274986 315.017,0.695104 315.292,0.404077 C316.077,-0.423937 316.648,0.533932 317.309,0.59504 C317.87,0.646982 318.602,0.750865 318.753,1.58805 C318.768,1.67054 319.268,1.79047 319.418,1.69575 C319.706,1.51319 319.946,1.18779 320.285,1.50402 C321.21,2.3687 322.572,2.48252 323.466,3.40296 C323.682,3.62524 324.03,3.87731 324.299,3.85745 C324.92,3.81238 325.175,4.26 325.451,4.60449 C325.842,5.09489 326.255,5.52646 326.759,5.90457 C327.29,6.30177 327.633,6.82042 328.469,6.87389 C329.107,6.91438 329.443,7.85086 330.216,8.13425 C332.402,8.93706 334.421,10.1722 336.316,11.4608 C338.165,12.7181 340.113,13.8792 341.803,15.4183 C342.847,16.3701 343.954,17.273 344.975,18.2652 C346.612,19.8571 347.719,21.8736 349.179,23.5885 C351.208,25.9717 352.372,28.7804 353.723,31.515 C354.934,33.9646 355.669,36.5495 356.293,39.2123 C356.675,40.8462 356.626,42.6038 357.467,44.13 C357.497,44.1834 357.482,44.269 357.47,44.3362 C357.16,45.9846 357.956,47.5314 357.9,49.1637 C357.845,50.7587 357.927,52.3589 357.869,53.9538 C357.846,54.5947 357.571,55.2226 357.483,55.8665 C357.403,56.4547 357.46,57.0092 357.106,57.5982 C356.84,58.042 356.985,58.7157 356.695,59.2977 C356.523,59.6415 356.95,60.2594 357.046,60.7651 C357.15,61.325 357.109,61.8513 356.341,61.8903 C356.183,63.0139 355.251,63.8984 355.093,64.8952 C354.779,66.8576 353.243,68.1714 352.806,70.0085 C351.865,70.5623 352.084,71.815 351.222,72.5078 C350.548,73.0494 350.241,74.0278 349.702,74.7611 C349.108,75.5708 348.433,76.3217 347.799,77.1023 C347.676,77.2536 347.46,77.4545 347.491,77.5859 C347.766,78.7889 346.821,79.2999 346.173,79.9668 C345.108,81.0614 344.056,82.1751 342.927,83.2017 C341,84.954 339.043,86.6665 336.842,88.0987 C335.394,89.0398 334.22,90.4346 332.722,91.2588 C331.055,92.1762 329.55,93.3067 327.944,94.2943 C325.907,95.5463 323.801,96.6768 321.714,97.8424 C319.515,99.0715 317.235,100.139 315.052,101.387 C313.758,102.128 312.564,103.105 311.194,103.641 C309.301,104.38 307.693,105.583 305.939,106.532 C303.763,107.709 301.772,109.231 299.707,110.611 C297.93,111.798 296.543,113.415 295.01,114.873 C294.383,115.47 293.839,116.127 293.007,116.554 C292.273,116.931 291.733,117.703 291.345,118.531 C290.579,120.161 289.805,121.79 289.321,123.524 C289.126,124.226 289.243,125.01 289.126,125.741 C289.036,126.3 289.617,127.191 288.443,127.325 C288.37,127.333 288.316,127.811 288.314,128.072 C288.301,129.529 288.331,130.988 288.3,132.446 C288.28,133.392 289.036,134.207 288.725,135.189 C289.577,136.026 288.945,137.214 289.489,138.216 C289.962,139.087 289.758,140.303 289.994,141.334 C290.297,142.651 290.989,143.924 291.059,145.241 C291.142,146.807 291.97,148.094 292.212,149.593 C292.432,150.96 293.352,152.215 293.574,153.583 C293.868,155.401 294.467,157.106 294.952,158.856 C295.001,159.037 294.731,159.306 294.591,159.568 C294.789,159.636 295.031,159.72 295.334,159.824 C295.401,161.108 295.65,162.378 296.129,163.614 C296.317,164.096 296.156,164.703 296.238,165.24 C296.315,165.747 296.566,166.231 296.624,166.738 C296.692,167.332 296.679,167.891 297.026,168.457 C297.318,168.931 297.43,169.57 297.449,170.141 C297.469,170.761 297.569,171.322 297.892,171.841 C298.196,172.329 297.09,172.854 297.968,173.349 C298.583,173.697 298.073,174.454 298.339,174.845 C298.971,175.78 298.741,176.883 299.066,177.879 C299.275,178.52 299.421,179.267 299.542,179.975 C299.662,180.673 299.358,181.442 299.912,182.066 C299.239,182.423 299.963,182.686 299.988,182.996 C300.013,183.312 300.185,183.614 300.224,183.931 C300.272,184.303 300.258,184.683 300.247,185.058 C300.243,185.206 300.101,185.448 300.149,185.487 C301.247,186.357 300.667,187.751 301.185,188.819 C301.423,189.308 301.409,189.947 301.573,190.522 C301.799,191.32 302.263,192.11 302.093,193.044 C302.021,193.435 302.238,193.969 302.495,194.308 C302.957,194.915 302.915,195.573 302.881,196.233 C302.831,197.234 303.009,197.187 303.248,198.265 C303.475,199.291 304.099,200.208 304.108,201.24 C304.117,202.175 305.253,203.087 304.209,204.062 C304.2,204.072 304.517,204.432 304.683,204.628 C305.114,205.134 305.058,205.778 305.224,206.357 C305.436,207.098 305.45,207.712 305.024,208.362 C305.264,208.417 305.453,208.461 305.642,208.505 C305.692,208.553 305.778,208.598 305.784,208.652 C305.936,209.841 306.066,211.033 306.228,212.221 C306.372,213.274 305.859,214.388 306.618,215.399 C306.865,215.73 305.95,216.207 306.605,216.747 C306.748,216.865 306.441,217.532 306.34,217.947 C306.574,218.028 306.815,218.112 307.046,218.193 C306.985,219.388 305.672,220.366 306.577,221.647 C305.934,221.912 304.892,221.721 304.992,223.033 C305.367,222.849 305.632,222.718 305.878,222.598 C306.019,222.704 306.213,222.786 306.209,222.857 C306.183,223.322 306.116,223.785 306.06,224.248 C306.042,224.396 305.977,224.665 306.001,224.673 C307.071,225.031 305.949,225.988 306.579,226.635 C307.153,227.227 306.388,228.17 306.156,228.883 C305.942,229.538 305.866,230.157 305.797,230.814 C305.7,231.734 305.755,232.773 305.329,233.524 C304.878,234.319 305.231,235.145 304.86,235.838 C304.484,236.541 304.009,237.183 304.141,238.042 C303.164,239.159 303.248,240.734 302.458,241.923 C302.303,242.156 301.936,242.248 301.652,242.413 L301.652,244.47 C301.101,244.796 300.357,244.921 300.362,245.78 C299.352,246.323 300.672,246.934 300.295,247.558 C300.127,247.573 299.863,247.677 299.762,247.59 C299.495,247.363 299.342,247.137 298.995,247.533 C298.753,247.811 298.898,247.888 298.996,248.148 C299.252,248.829 298.691,249.783 298.567,249.659 C297.787,248.871 297.714,249.89 297.349,250.067 C297.206,250.137 297.041,250.418 297.075,250.555 C297.4,251.845 296.349,252.165 295.589,252.612 C293.415,253.891 293.4,253.867 291.642,253.933 C291.642,254.326 291.588,254.735 291.654,255.123 C291.754,255.704 291.457,256.079 291.045,256.328 C289.772,257.095 288.506,257.894 287.165,258.525 C285.892,259.125 284.56,259.789 283.195,259.961 C281.157,260.22 279.251,261.124 277.131,260.986 C275.126,260.856 273.105,260.938 271.092,260.964 C268.948,260.99 266.938,260.343 264.886,259.861 C263.487,259.533 262.166,259.101 260.859,258.499 C260.048,258.125 259.107,257.876 258.132,258.033 C256.831,258.241 255.669,257.711 254.523,257.204 C251.391,255.82 249.042,254.107 246.388,252.188 C245.032,251.209 243.628,250.326 242.458,249.093 C240.528,247.058 239.196,244.82 237.861,241.616 C237.17,239.958 236.227,238.381 235.235,236.875 C233.313,233.955 232.1,231.153 230.321,227.453 C228.839,224.367 227.756,221.145 226.5,217.992 C225.84,216.333 225.096,214.683 224.527,212.972 C223.962,211.272 223.37,209.582 222.361,208.023 C221.76,207.093 221.399,205.915 220.788,204.946 C219.647,203.134 218.814,201.179 217.903,199.26 C216.801,196.939 215.588,194.651 214.637,192.282 C213.789,190.168 212.449,188.349 211.606,186.245 C210.771,184.163 209.626,182.203 208.589,180.205 C207.598,178.294 206.298,176.689 204.23,175.823 C202.988,175.303 201.888,174.548 201.049,173.454 Z" id="Shape" fill="#FFB819"></path>
            <path d="M184.099,204.06 C183.935,203.927 183.77,203.793 183.606,203.659 C182.595,205.228 181.584,206.797 180.573,208.366 C180.695,208.444 180.817,208.523 180.939,208.602 L184.099,204.06 Z M266.026,113.296 C266.173,113.441 266.32,113.584 266.467,113.728 C269.029,111.231 271.59,108.734 274.151,106.236 C273.987,106.069 273.822,105.901 273.658,105.735 C271.113,108.255 268.57,110.776 266.026,113.296 Z M218.571,161.23 C221.226,158.672 223.88,156.112 226.534,153.554 L226.108,153.127 C225.118,154.067 224.117,154.993 223.143,155.949 C222.121,156.954 221.081,157.948 220.137,159.023 C219.544,159.697 219.112,160.513 218.608,161.266 C216.98,163.021 215.351,164.778 213.722,166.533 C213.185,166.912 212.555,167.209 212.123,167.685 C208.886,171.251 205.619,174.793 202.498,178.458 C199.408,182.089 196.42,185.812 193.502,189.583 C192.062,191.443 190.88,193.502 189.582,195.471 C189.728,195.57 189.874,195.669 190.021,195.767 C192.357,192.647 194.577,189.431 197.053,186.428 C201.673,180.826 206.451,175.354 211.142,169.809 C212.04,168.748 212.841,167.604 213.687,166.499 C215.315,164.743 216.943,162.986 218.571,161.23 Z M181.419,182.12 C178.379,185.425 175.323,188.717 172.302,192.04 C168.72,195.98 165.159,199.94 161.612,203.912 C161.119,204.464 160.667,205.092 160.353,205.759 C159.133,208.357 156.79,208.116 154.582,208.013 C153.287,207.953 152.507,205.941 153.352,204.761 C155.683,201.506 157.95,198.181 160.552,195.15 C168.622,185.744 176.838,176.464 184.99,167.129 C185.69,166.328 186.301,165.448 187.02,164.667 C187.759,163.865 188.375,162.445 189.713,164.21 C190.074,164.687 191.241,164.465 191.913,164.809 C194.254,166.007 194.757,166.952 194.015,169.434 C193.026,172.741 191.82,175.986 190.686,179.25 C189.859,181.632 189.049,184.022 188.138,186.372 C186.985,189.345 185.633,192.242 184.574,195.245 C183.95,197.017 183.725,198.929 183.32,200.777 C183.468,200.933 183.617,201.09 183.766,201.245 C183.9,200.875 183.953,200.441 184.183,200.143 C187.159,196.298 190.178,192.484 193.153,188.636 C195.872,185.117 198.369,181.409 201.283,178.062 C207.584,170.825 213.843,163.523 220.565,156.686 C233.492,143.536 246.754,130.716 259.827,117.709 C266.686,110.885 273.437,103.954 280.244,97.0787 C280.572,96.7472 280.971,96.4859 281.576,96 C281.534,96.7989 281.51,97.2676 281.486,97.7356 C281.602,97.8031 281.761,97.9403 281.799,97.9127 C282.659,97.2752 283.532,97.7342 283.734,98.4 C283.971,99.1796 283.918,100.345 283.473,100.981 C282.017,103.062 280.371,105.018 278.711,106.946 C277.257,108.634 275.736,110.271 274.155,111.841 C270.135,115.832 266.527,120.217 262.318,124.032 C261.167,125.076 260.382,126.523 259.422,127.781 C259.157,128.128 258.896,128.485 258.587,128.791 C251.855,135.476 245.132,142.17 238.37,148.825 C235.309,151.838 232.14,154.741 229.072,157.748 C226.943,159.835 224.953,162.067 222.79,164.117 C222.141,164.732 221.798,166.355 220.257,165.406 C220.22,165.384 219.835,165.81 219.709,166.073 C219.291,166.943 218.859,167.815 218.538,168.723 C217.91,170.492 216.386,171.327 215.034,172.411 C213.94,173.289 213.17,174.56 212.183,175.586 C211.182,176.625 209.479,177.426 209.188,178.604 C208.793,180.21 207.436,180.696 206.746,181.862 C205.435,184.08 203.975,186.219 202.449,188.298 C200.441,191.032 198.675,194.123 196.118,196.221 C193.971,197.983 192.956,200.358 191.241,202.303 C188.977,204.87 187.111,207.807 185.232,210.688 C183.858,212.794 183.12,215.461 181.384,217.138 C180.01,218.465 179.82,220.188 178.755,221.404 C176.567,223.903 175.36,226.923 173.932,229.794 C172.82,232.035 171.304,233.001 169.021,232.617 C168.152,232.471 166.834,233.676 166.226,231.398 C165.794,229.773 164.918,229.991 165.521,228.283 C170.816,213.309 176.12,198.338 181.419,183.365 C181.539,183.027 181.627,182.678 181.73,182.334 C181.627,182.263 181.523,182.191 181.419,182.12 Z" id="Shape" fill="#F2F2F2"></path>
            <path d="M256.071,98.1251 C256.298,98.6014 256.371,99.0942 256.645,99.2707 C258.277,100.314 258.348,100.937 256.755,102.217 C253.343,104.956 249.837,107.583 246.483,110.391 C240.992,114.99 235.538,119.638 230.172,124.383 C227.02,127.171 223.932,130.059 221.055,133.127 C216.837,137.625 212.799,142.294 208.752,146.949 C206.007,150.107 203.367,153.357 200.707,156.588 C199.796,157.696 198.636,157.203 198.082,156.59 C197.585,156.039 197.37,154.619 197.738,154.006 C199.438,151.17 201.307,148.424 203.257,145.749 C216.676,127.324 234.024,113.148 252.57,100.279 C253.689,99.5029 254.892,98.8461 256.071,98.1251 Z" id="Path" fill="#F2F2F2"></path>
        </g>
    </g>
</svg>