<?xml version="1.0" encoding="UTF-8"?>
<svg width="188px" height="323px" viewBox="0 0 188 323" version="1.1" xmlns="http://www.w3.org/2000/svg" xmlns:xlink="http://www.w3.org/1999/xlink">
    <!-- Generator: Sketch 54.1 (76490) - https://sketchapp.com -->
    <title>splash-1</title>
    <desc>Created with Sketch.</desc>
    <g id="Page-1" stroke="none" stroke-width="1" fill="none" fill-rule="evenodd">
        <g id="splash-1">
            <path d="M145.088,124.512 C144.5769,125.191 144.1421,125.743 144.5102,126.435 C144.6284,126.658 145.1048,126.646 145.3197,126.402 C145.8556,125.795 145.5519,125.226 145.088,124.512 Z M21.0466,262.734 C20.2567,262.682 20.0652,263.48 19.4316,263.124 C19.2623,263.029 19.5146,264.738 19.8404,264.631 C20.654,264.367 20.3905,263.398 21.0466,262.734 Z M60.101,235.684 C60.2935,234.206 61.7522,233.198 61.6161,231.25 C60.6948,232.815 60.2016,234.182 60.101,235.684 Z M70.31295,217.175 C70.88077,215.96 71.54488,214.72 70.91407,212.897 C70.18474,214.494 70.14237,215.8 70.31295,217.175 Z M59.8364,240.283 C60.7713,238.603 61.8665,237.002 61.7114,234.848 C60.8652,236.676 59.8797,238.321 59.8364,240.283 Z M109.1873,208.141 C108.0129,210.352 106.23,212.298 106.208,215.011 C106.9577,212.615 108.4816,210.556 109.1873,208.141 Z M148.7131,123.654 L148.2911,123.68 C148.2309,126.842 148.1714,130.004 148.1116,133.167 C148.2353,133.168 148.3585,133.17 148.4819,133.172 C149.0674,130.01 148.8001,126.83 148.7131,123.654 Z M32.7389,315.385 C35.8788,314.959 36.524,314.167 35.3321,311.663 C35.3415,313.753 32.6765,313.424 32.7389,315.385 Z M102.0264,222.028 C99.8477,224.71 99.383,228.057 98.4041,231.212 C100.2984,228.426 101.0722,225.202 102.0264,222.028 Z M2.8372,300.654 C2.6238,295.543 2.5567,290.431 2.7607,285.316 C1.9351,290.429 1.9578,295.542 2.8372,300.654 Z M51.7471,199.521 C50.4015,203.47 49.3788,207.504 48.5507,211.588 C50.4341,207.779 51.9471,203.876 51.7471,199.521 Z M19.5286,316.644 C20.2078,317.357 20.8254,317.431 21.4178,317.536 C24.5652,318.094 27.551,317.29 30.5291,316.434 C31.9106,316.038 31.9977,315.908 32.0609,314.196 C29.5345,316.964 26.9067,317.403 25.739,315.237 C25.0476,315.66 23.9458,316.687 23.6419,316.163 C22.8499,314.796 22.3122,315.93 21.7819,316.131 C21.1321,316.379 20.5608,316.826 19.5286,316.644 Z M138.3517,97.162 C140.8918,106.309 143.1151,115.546 146.2227,124.529 C146.3879,114.614 143.3794,105.601 138.3517,97.162 Z M102.5041,244.898 C104.164,243.297 105.2178,241.578 106.2624,239.887 C114.7673,226.118 120.9596,211.196 127.9012,196.648 C127.0965,197.551 103.2358,243.113 102.5041,244.898 Z M37.7811,217.076 C36.9473,218.101 36.0344,219.064 36.1231,220.558 C36.1496,221.012 35.6727,221.346 35.2889,221.586 C34.5898,222.024 34.3681,222.876 34.5292,223.398 C34.8016,224.279 34.2939,224.725 33.9741,225.308 C33.7587,225.701 33.3893,225.98 33.2487,226.447 C32.2462,229.788 30.3143,232.724 29.0778,235.964 C28.5707,237.291 27.4348,238.333 27.4496,239.919 C27.4543,240.428 27.9399,241.15 27.386,241.454 C26.8418,241.753 26.8391,240.528 26.0326,240.719 C26.7099,242.342 26.7836,244.044 25.8887,245.533 C25.1422,246.773 25.24,248.819 22.9295,248.781 C24.2963,248.8 24.6471,249.269 24.3102,250.394 C23.9169,251.709 23.2821,252.935 22.8687,254.222 C22.5396,255.248 22.577,256.47 21.8848,257.308 C20.9208,258.473 21.8234,260.376 20.1768,261.238 C19.9457,261.36 19.9944,261.986 20.6442,262.039 C21.4379,262.103 22.3738,261.111 22.214,260.214 C22.0007,259.017 23.263,258.195 22.9733,256.998 C24.5034,257.017 23.8811,255.898 23.9657,255.143 C23.9848,254.97 23.9344,254.742 24.2182,254.668 C25.1735,254.419 25.5071,253.345 26.7389,253.088 C26.0157,252.675 25.0138,252.988 25.1557,252.312 C25.3388,251.44 26.323,252.318 26.9588,251.833 C26.2484,251.231 26.3006,250.574 26.8656,249.877 C28.6129,247.724 28.8498,244.994 29.5463,242.464 C29.9527,240.99 30.5335,239.563 31.1459,238.231 C32.2331,235.868 32.9409,233.363 33.8143,230.957 C34.8477,228.111 35.7691,225.172 36.6029,222.238 C37.0787,220.563 38.1019,218.961 37.7398,217.085 C38.8584,215.131 38.8304,214.052 37.609,213.361 C37.8138,214.607 37.0131,215.871 37.7811,217.076 Z M154.4737,125.127 C155.0072,127.531 154.7507,129.929 154.3159,132.302 C153.983,134.124 153.3473,135.893 153.7942,137.798 C153.8801,138.162 153.9965,138.74 153.3927,138.937 C152.9919,139.069 152.9146,139.407 153.1483,139.613 C153.9207,140.295 153.5552,140.755 152.9659,141.27 C152.5425,141.64 152.456,141.96 153.2228,141.852 C153.1914,142.299 153.2019,142.753 153.1219,143.191 C151.8223,150.314 150.3898,157.409 148.2491,164.337 C147.1195,167.99 146.925,171.811 146.1223,175.529 C144.6425,182.384 142.0147,188.748 138.9055,194.996 C137.0251,198.774 134.8049,202.384 133.0334,206.174 C129.4024,213.941 125.3735,221.507 121.7456,229.266 C119.4537,234.168 116.9453,238.947 114.4189,243.723 C112.1116,248.084 109.1316,251.946 105.9271,255.697 C100.7725,261.728 95.8263,267.938 90.8985,274.16 C82.30767,285.006 72.73387,294.904 61.9122,303.556 C55.161,308.952 47.9967,313.724 40.1687,317.431 C34.6865,320.027 28.9893,321.95 22.869,322.249 C13.7634,322.693 7.1396,318.388 3.5677,309.865 C0.8343,303.344 0.4587,296.49 0.7027,289.571 C1.1457,277.011 5.031,265.412 10.7241,254.328 C14.6168,246.748 18.9079,239.393 23.1361,232.001 C24.829,229.042 25.5543,225.73 26.5981,222.522 C28.5096,216.647 30.217,210.716 31.866,204.768 C32.5407,202.335 33.0903,199.862 33.1101,197.315 C33.1205,195.946 33.8794,194.666 33.4045,193.215 C33.1731,192.508 33.8358,192.029 34.4872,191.634 C35.1965,191.204 35.8995,190.55 34.7166,189.826 C33.4641,189.06 32.9721,187.932 33.5117,186.417 C33.756,185.73 33.9099,185.162 33.4644,184.543 C33.4073,184.464 33.3348,184.311 33.3685,184.264 C34.2812,183.013 33.3118,181.86 33.2544,180.662 C33.1193,177.846 32.8386,175.04 32.749,172.224 C32.6885,170.34 32.366,168.476 32.2219,166.606 C32.1555,165.746 32.1546,164.744 31.9066,163.884 C31.6197,162.89 31.4909,161.877 31.2439,160.885 C30.6669,158.573 30.8761,156.178 30.3614,153.842 C29.7385,151.016 28.6083,148.375 27.7841,145.627 C25.5865,138.299 23.0188,131.067 21.8295,123.478 C20.785,116.813 22.1088,110.504 25.0279,104.47 C26.5163,101.393 27.0436,98.016 27.9234,94.745 C28.8138,91.437 29.0961,88.066 29.2342,84.6944 C29.3186,82.6257 28.3683,80.6713 27.6888,78.7043 C25.7247,73.0152 23.1685,67.4328 22.6701,61.3923 C22.2498,56.2948 21.6247,51.1847 22.0061,46.0137 C22.403,40.6417 23.2491,35.3883 25.2488,30.3963 C28.4304,22.4551 32.8815,15.4345 39.7054,9.9687 C42.8467,7.4528 46.178,5.4005 49.7997,3.84 C54.4862,1.8205 59.4692,0.8841 64.5741,0.5861 C73.01332,0.095 80.618203,2.7293 87.94796,6.5847 C91.5285,8.4669 94.9884,10.5193 98.0123,13.1971 C99.2279,14.2734 100.3867,15.5697 101.6029,16.529 C104.8823,19.116 107.1294,22.4695 109.4242,25.7816 C111.848,29.2778 113.9681,32.9853 116.1217,36.6671 C117.7107,39.3841 118.7091,42.3918 120.5495,44.9749 C121.2087,45.9008 121.4212,47.147 121.8218,48.2529 C122.2892,49.5444 123.33,50.4747 123.8948,51.7348 C125.8563,56.1088 127.999,60.4011 129.9767,64.7683 C133.4424,72.4227 137.8656,79.5542 141.9435,86.875 C143.7149,90.054 145.5038,93.225 147.2769,96.403 C148.2806,98.203 149.047,100.13 149.8727,102.002 C150.3554,103.096 150.5625,104.476 150.9437,105.665 C151.4869,107.358 151.3275,109.287 152.6034,110.767 C153.2763,111.548 153.5105,112.521 153.3066,113.606 C153.0607,114.915 153.9866,116.135 153.7062,117.469 C153.9619,120.022 154.2178,122.574 154.4737,125.127 Z" id="Shape" fill="#FFB819"></path>
            <path d="M185.081,140.028 C183.775,140.06 182.486,139.727 181.173,139.845 C180.966,139.863 180.596,139.794 180.557,139.678 C180.166,138.528 178.8614,138.666 178.1299,137.921 C177.4817,137.262 177.4245,136.741 177.736,136.076 C178.943,133.499 180.004,130.865 180.99,128.198 C181.249,127.497 181.504,126.789 181.694,126.066 C181.876,125.374 182.47,125.152 182.989,124.961 C183.553,124.753 183.619,125.435 183.919,125.727 C185.323,127.095 185.365,128.948 185.775,130.672 C186.304,132.895 186.781,135.133 187.382,137.338 C187.882,139.173 187.295,140.322 185.081,140.028 Z" id="Path" fill="#F2F2F2"></path>
            <path d="M170.7817,103.967 C170.8219,104.913 170.2159,105.572 169.156,105.696 C167.6802,105.869 166.2048,106.069 164.7236,106.17 C163.3708,106.262 162.6613,105.158 161.9866,104.294 C161.5223,103.699 161.8387,102.846 162.3171,102.136 C163.9176,99.759 165.1064,97.163 166.1945,94.521 C166.3842,94.06 166.583,93.636 167.1786,93.559 C167.8231,93.476 167.9523,93.963 168.2506,94.348 C169.1411,95.497 169.3333,96.883 169.6758,98.221 C170.16,100.114 170.6185,102.012 170.7817,103.967 Z" id="Path" fill="#F2F2F2"></path>
            <path d="M167.6838,125.127 C167.6825,126.322 168.0072,127.259 166.8848,127.799 C166.6184,127.927 166.3827,128.101 166.104,128.052 C164.8494,127.833 163.6246,127.903 162.4789,128.472 C161.583,128.916 161.0793,128.569 160.4141,127.915 C159.1371,126.657 159.1061,126.152 159.9104,124.596 C161.1961,122.109 162.6529,119.689 163.4519,116.971 C163.5678,116.576 163.6958,116.175 163.8893,115.815 C164.2898,115.071 165.0155,115.057 165.5693,115.687 C166.7365,117.016 166.869,118.689 167.1167,120.306 C167.3781,122.013 167.5243,123.738 167.6838,125.127 Z" id="Path" fill="#F2F2F2"></path>
            <path d="M168.5465,169.208 C167.2782,169.065 166.261,168.372 165.3725,167.538 C165.0511,167.236 165.0855,166.621 165.3199,166.147 C166.1073,164.556 166.4146,162.789 167.236,161.182 C167.6237,160.423 167.7861,159.366 168.071,158.453 C168.2711,157.811 168.5929,157.101 169.365,157.042 C170.1342,156.983 170.5405,157.688 170.8656,158.237 C171.6961,159.64 171.974,161.254 172.3025,162.822 C172.6616,164.536 172.8919,166.28 173.1446,168.017 C173.2452,168.71 172.7801,169.149 172.848,169.778 C172.884,170.113 172.4591,170.161 172.0556,170.048 C170.8988,169.723 169.7179,169.482 168.5465,169.208 Z" id="Path" fill="#F2F2F2"></path>
            <path d="M151.0372,113.523 C151.0401,114.643 150.4561,115.166 149.2292,114.944 C148.2252,114.762 147.2262,114.864 146.2466,114.871 C145.0363,114.88 144.2398,114.348 143.4184,113.63 C142.6613,112.968 142.6236,112.201 143.0568,111.416 C144.4398,108.913 145.5743,106.31 146.4628,103.591 C146.8091,102.532 147.526,102.468 148.2733,103.306 C148.7852,103.88 149.1605,104.524 149.3908,105.238 C150.2693,107.957 150.7622,110.757 151.0372,113.523 Z" id="Path" fill="#F2F2F2"></path>
            <path d="M131.0455,123.571 C130.1815,123.529 129.4384,123.557 128.6875,123.43 C126.8994,123.127 126.3323,122.596 126.6243,120.834 C126.9975,118.583 127.2593,116.3 127.9726,114.115 C128.1229,113.655 128.284,113.173 128.5578,112.783 C129.0391,112.098 129.6443,111.893 130.3397,112.574 C130.9341,113.156 131.4692,113.775 131.8317,114.532 C132.8539,116.666 133.6496,118.884 134.3645,121.138 C134.7443,122.336 133.9027,123.439 132.728,123.482 C132.1282,123.503 131.5293,123.545 131.0455,123.571 Z" id="Path" fill="#F2F2F2"></path>
            <path d="M149.5903,159.385 C148.8133,159.548 148.0797,159.782 147.2613,159.62 C146.0555,159.382 144.7023,157.581 145.0842,156.458 C145.9321,153.966 146.4428,151.385 147.2124,148.875 C147.3876,148.302 147.5106,147.662 148.2686,147.569 C149.0307,147.477 149.3377,148.069 149.599,148.594 C150.9104,151.225 151.7728,154.028 152.6355,156.824 C152.8903,157.651 152.5995,158.305 151.757,158.78 C151.0508,159.178 150.2232,158.9 149.5903,159.385 Z" id="Path" fill="#F2F2F2"></path>
            <path d="M133.6129,100.566 C133.7359,102.745 132.7646,103.731 130.5764,104.155 C129.4294,104.377 128.6122,103.883 127.7287,103.508 C126.6986,103.071 126.313,102.29 126.6145,101.059 C127.0026,99.474 127.6894,98.02 128.2618,96.518 C128.7299,95.29 129.1842,94.061 129.5889,92.81 C129.9107,91.816 130.3171,91.851 131.1393,92.307 C132.5616,93.094 132.847,94.408 133.0599,95.767 C133.3088,97.356 133.4339,98.966 133.6129,100.566 Z" id="Path" fill="#F2F2F2"></path>
            <path d="M123.0249,149.098 C123.0178,148.283 123.2837,147.532 123.6785,146.848 C124.6779,145.117 125.3924,143.26 126.1384,141.417 C126.7436,139.921 126.8761,140.038 128.132,140.838 C129.4392,141.672 129.7672,142.909 130.1959,144.151 C130.6615,145.499 131.0599,146.876 131.3917,148.263 C131.6945,149.527 131.4385,149.787 130.2282,150.203 C129.1107,150.587 128.0823,151.198 126.8517,151.278 C126.2639,151.316 125.9984,151.131 125.8224,150.624 C125.6633,150.165 125.3162,150.197 124.9438,150.352 C123.9349,150.771 123.0228,150.174 123.0249,149.098 Z" id="Path" fill="#F2F2F2"></path>
            <path d="M131.0917,173.174 C129.707,173.023 128.505,172.957 127.327,172.751 C125.3898,172.412 124.5667,170.979 124.9818,169.028 C125.3956,167.084 125.7845,165.141 126.5528,163.296 C127.1774,161.797 127.9102,161.602 128.9946,162.762 C129.4713,163.271 129.8751,163.9 130.1419,164.546 C131.056,166.759 132.0219,168.959 132.4921,171.329 C132.7472,172.613 132.2411,173.206 131.0917,173.174 Z" id="Path" fill="#F2F2F2"></path>
            <path d="M113.0318,117.989 C112.7092,117.688 113.1822,116.897 112.4536,116.696 C112.1989,116.626 112.039,117.049 112.1326,117.295 C112.307,117.751 112.1467,118.424 112.7738,118.603 C113.0803,118.691 113.0322,118.335 113.0318,117.989 Z M115.8728,119.993 C115.9105,121.684 115.5075,121.979 114.0615,121.951 C113.2389,121.936 112.4105,122.206 111.585,122.349 C110.2969,122.573 108.3447,121.444 108.0018,120.349 C107.8891,119.987 107.9007,119.716 108.044,119.391 C109.0427,117.12 110.0185,114.838 111.0259,112.571 C111.4662,111.581 111.9748,111.502 112.7974,112.242 C114.6468,113.908 115.0312,116.255 115.6612,118.479 C115.8231,119.051 115.8302,119.667 115.8728,119.993 Z" id="Shape" fill="#F2F2F2"></path>
            <path d="M103,140.611 C103.2614,138.011 104.0968,135.564 104.9882,133.144 C105.3692,132.11 105.8754,132.091 106.7593,132.781 C107.5479,133.397 107.9837,134.228 108.1299,135.164 C108.477,137.386 108.7607,139.619 109.027,141.852 C109.1393,142.795 108.5457,143.277 107.5989,143.472 C106.0887,143.783 104.8863,143.185 103.712,142.414 C103.0667,141.99 103.0783,141.277 103,140.611 Z" id="Path" fill="#F2F2F2"></path>
            <path d="M146.593,139.59 C146.1846,139.557 145.7145,139.375 145.5377,139.53 C144.9155,140.074 144.1584,139.701 143.4741,139.95 C142.7439,140.215 141.6313,138.417 141.7191,137.52 C141.8496,136.189 142.9994,135.348 143.1854,134.012 C143.3693,132.694 143.8966,131.422 144.295,130.136 C144.411,129.761 144.6591,129.488 145.104,129.465 C145.5795,129.44 145.8309,129.655 146.0479,130.084 C147.2483,132.466 147.887,135.053 148.8032,137.538 C149.3094,138.91 148.0494,139.394 146.593,139.59 Z" id="Path" fill="#F2F2F2"></path>
            <path d="M167.9256,145.309 C168.2404,146.705 166.7017,147.464 165.6848,147.207 C165.2114,147.087 164.8278,146.93 164.2546,147.201 C163.5504,147.534 162.4843,147.94 162.302,146.455 C162.2875,146.337 161.9823,146.277 161.8522,146.149 C161.0462,145.357 161.0205,144.22 161.7594,143.319 C161.9247,143.117 162.0924,142.894 162.174,142.652 C162.732,141.001 163.958,139.614 164.0802,137.79 C164.1117,137.317 164.2873,136.877 164.8266,136.791 C165.3679,136.706 165.6301,137.093 165.8505,137.512 C165.9553,137.711 166.1309,137.884 166.1914,138.094 C166.8827,140.472 167.5002,142.868 167.9256,145.309 Z" id="Path" fill="#F2F2F2"></path>
        </g>
    </g>
</svg>