<?xml version="1.0" encoding="UTF-8"?>
<svg width="141px" height="27px" viewBox="0 0 141 27" version="1.1" xmlns="http://www.w3.org/2000/svg" xmlns:xlink="http://www.w3.org/1999/xlink">
    <!-- Generator: Sketch 54.1 (76490) - https://sketchapp.com -->
    <title>wordmark-white</title>
    <desc>Created with Sketch.</desc>
    <g id="Page-1" stroke="none" stroke-width="1" fill="none" fill-rule="evenodd">
        <g id="wordmark-white" fill="#000000" fill-rule="nonzero">
            <path d="M30.8928087,16.6183424 L32.4487304,13.0276963 L34.042547,16.6183424 L30.8928087,16.6183424 Z M32.2436519,0.392563105 L21,26 L26.8269044,26 L28.692673,21.697793 L36.2984105,21.697793 L38.2065323,26 L44,26 L32.7251405,0.392563105 C32.4843962,-0.148223225 32.4843962,-0.113192532 32.2436519,0.392563105 Z" id="Fill-6"></path>
            <polygon id="Fill-8" points="79 27 84 27 84 1 79 1"></polygon>
            <path d="M103.537218,10.5075453 C99.9572465,8.93209256 99.5549052,8.33677062 99.5549052,7.07369215 C99.5549052,6.16599598 100.526148,5.39637827 102.364805,5.39637827 C103.201934,5.39637827 104.910803,5.46202213 106.081054,6.97183099 L110.264537,3.78470825 C108.691946,1.47359155 105.745769,0 102.265301,0 C97.6816389,0 94.4023413,2.97887324 94.4023413,7.10990946 C94.4023413,11.0689135 96.5438351,13.2012072 100.158417,14.8490946 C103.805446,16.5309356 105.812826,17.2620724 105.812826,19.3287223 C105.812826,20.9064386 104.240234,21.6783199 102.198244,21.6081489 C99.7560758,21.5379779 98.4841583,19.471328 98.1834839,19.0503018 L94,22.2034708 C94.7030157,23.430332 97.2122407,27 102.364805,27 C107.285914,27 111,23.8490946 111,19.1566901 C111,14.570674 107.921873,12.4338531 103.537218,10.5075453" id="Fill-10"></path>
            <path d="M58.5512696,13.972577 L52.7934677,1 L47,1 L58.2748595,26.605787 C58.5156038,27.1487742 58.5156038,27.1137427 58.7585772,26.605787 L70,1 L64.1730956,1 L58.5512696,13.972577 Z" id="Fill-3"></path>
            <polygon id="Fill-11" points="135.670692 1 135.670692 12.0593001 126.327071 12.0593001 126.327071 1 121 1 121 27 126.327071 27 126.327071 17.3973453 135.670692 17.3973453 135.670692 27 141 27 141 1"></polygon>
            <polygon id="Fill-2" points="0 0 0 26 5.34999409 26 5.34999409 16.3959321 11.9325298 16.3959321 14.2427035 11.0605878 5.34999409 11.0605878 5.34999409 5.33758511 16.7055418 5.33758511 19 0"></polygon>
        </g>
    </g>
</svg>