<svg width="21" height="16" viewBox="0 0 21 16" fill="none" xmlns="http://www.w3.org/2000/svg">
<path d="M12.6334 15.0333C12.3667 14.7667 12.2387 14.4444 12.2494 14.0666C12.261 13.6889 12.4001 13.3667 12.6667 13.1L16.4334 9.33332H1.56673C1.18895 9.33332 0.872065 9.20532 0.616065 8.94932C0.360954 8.69421 0.233398 8.37776 0.233398 7.99998C0.233398 7.62221 0.360954 7.30532 0.616065 7.04932C0.872065 6.79421 1.18895 6.66665 1.56673 6.66665H16.4334L12.6334 2.86665C12.3667 2.59998 12.2334 2.28309 12.2334 1.91598C12.2334 1.54976 12.3667 1.23332 12.6334 0.96665C12.9001 0.699983 13.217 0.56665 13.5841 0.56665C13.9503 0.56665 14.2667 0.699983 14.5334 0.96665L20.6334 7.06665C20.7667 7.19998 20.8614 7.34443 20.9174 7.49998C20.9725 7.65554 21.0001 7.82221 21.0001 7.99998C21.0001 8.17776 20.9725 8.34443 20.9174 8.49998C20.8614 8.65554 20.7667 8.79998 20.6334 8.93332L14.5001 15.0666C14.2556 15.3111 13.9503 15.4333 13.5841 15.4333C13.217 15.4333 12.9001 15.3 12.6334 15.0333Z" fill="black"/>
</svg>
