<svg width="24" height="24" viewBox="0 0 24 24" fill="none" xmlns="http://www.w3.org/2000/svg">
<path d="M21.3333 21.3333V2.66667H2.66667V21.3333H21.3333ZM21.3333 0C22.0406 0 22.7189 0.280951 23.219 0.781048C23.719 1.28115 24 1.95942 24 2.66667V21.3333C24 22.0406 23.719 22.7189 23.219 23.219C22.7189 23.719 22.0406 24 21.3333 24H2.66667C1.95942 24 1.28115 23.719 0.781048 23.219C0.280951 22.7189 0 22.0406 0 21.3333V2.66667C0 1.95942 0.280951 1.28115 0.781048 0.781048C1.28115 0.280951 1.95942 0 2.66667 0H21.3333ZM18.6667 10.6667V13.3333H5.33333V10.6667H18.6667Z" fill="black"/>
</svg>
